<svg xmlns="http://www.w3.org/2000/svg" viewBox="0 0 200 200">
  <rect width="200" height="200" rx="16" fill="#E8EAF6"/>
  <ellipse cx="100" cy="130" rx="55" ry="50" fill="#212121"/>
  <ellipse cx="100" cy="90" rx="40" ry="38" fill="#212121"/>
  <polygon points="68,65 60,30 85,55" fill="#212121"/>
  <polygon points="132,65 140,30 115,55" fill="#212121"/>
  <polygon points="68,65 63,35 85,55" fill="#424242"/>
  <polygon points="132,65 137,35 115,55" fill="#424242"/>
  <circle cx="88" cy="85" r="6" fill="#FDD835"/>
  <circle cx="112" cy="85" r="6" fill="#FDD835"/>
  <circle cx="88" cy="85" r="3" fill="#333"/>
  <circle cx="112" cy="85" r="3" fill="#333"/>
  <ellipse cx="100" cy="97" rx="4" ry="3" fill="#616161"/>
  <path d="M94,103 Q100,110 106,103" fill="none" stroke="#616161" stroke-width="1.5"/>
  <line x1="65" y1="93" x2="45" y2="88" stroke="#424242" stroke-width="1"/>
  <line x1="65" y1="97" x2="45" y2="97" stroke="#424242" stroke-width="1"/>
  <line x1="135" y1="93" x2="155" y2="88" stroke="#424242" stroke-width="1"/>
  <line x1="135" y1="97" x2="155" y2="97" stroke="#424242" stroke-width="1"/>
  <path d="M145,155 Q165,165 155,180" fill="#212121" stroke="none"/>
</svg>
